<svg id="Layer_1" data-name="Layer 1" xmlns="http://www.w3.org/2000/svg" viewBox="0 0 400 200"><defs><style>.cls-1{fill:#fff;}</style></defs><title>logo-sixtwotwo-white</title><path class="cls-1" d="M320.75,74.23V63.46a19.81,19.81,0,0,1,19.89-19.89h28.18a19.81,19.81,0,0,1,19.89,19.89V80.86c0,10.08-7.6,15.61-19.89,19.89L345.06,109c-4.28,1.52-5.53,2.21-5.53,5.53v10.22H389v18.79H319.64V110.15c0-10.08,7.6-15.61,19.89-19.89L363.29,82c4.28-1.52,5.53-2.21,5.53-5.53V67.88c0-3.73-1.8-5.53-5.53-5.53H345.61c-3.73,0-5.53,1.8-5.53,5.53v6.35Zm-56,50.56V114.57c0-3.32,1.24-4,5.53-5.53L294,100.76c12.29-4.28,19.89-9.81,19.89-19.89V63.46A19.81,19.81,0,0,0,294,43.57H273.13L261.76,62.35h26.72c3.73,0,5.53,1.8,5.53,5.53v8.56c0,3.32-1.24,4-5.53,5.53l-23.76,8.29c-12.29,4.28-19.89,9.81-19.89,19.89v33.43h69.35V124.79Zm-92.59,8.29,11.64-19.22L171.49,93.3l28.87-49.73H178.67L160.3,74.92,141.79,43.57H118.58l29,48.49-29.84,51h21.69l19.2-32.88ZM276.41,20.31l-90.79,150h-23l90.79-150ZM56.54,74.79V67c0-3.18-1.52-4.7-4.7-4.7H32c-3.18,0-4.7,1.52-4.7,4.7v9.39c0,2.9,1.38,4,4.7,4.7l25.69,5.53c11.6,2.62,19.89,9.39,19.89,19.89v18c0,11.6-8,19.62-19.62,19.62H27c-11.6,0-19.62-8-19.62-19.62V111.81H26.7v8.84c0,3.18,1.52,4.7,4.7,4.7H52.95c3.18,0,4.7-1.52,4.7-4.7v-10.5c0-2.9-1.38-4-4.7-4.7L27.26,99.93C15.65,97.3,7.36,90.53,7.36,80V63.18c0-11.6,8-19.62,19.62-19.62H56.27c11.6,0,19.62,8,19.62,19.62v11.6Zm33.35,68.79V44.12h19.89v99.46Z"/></svg>